<?xml version="1.0" encoding="UTF-8"?>
<!DOCTYPE svg PUBLIC "-//W3C//DTD SVG 1.1//EN" "http://www.w3.org/Graphics/SVG/1.1/DTD/svg11.dtd">
<!-- Creator: CorelDRAW -->
<svg xmlns="http://www.w3.org/2000/svg" xml:space="preserve" width="195mm" height="150mm" version="1.1" shape-rendering="geometricPrecision" text-rendering="geometricPrecision" image-rendering="optimizeQuality" fill-rule="evenodd" clip-rule="evenodd"
viewBox="0 0 19500 15000"
 xmlns:xlink="http://www.w3.org/1999/xlink"
 xmlns:xodm="http://www.corel.com/coreldraw/odm/2003">
 <g id="Capa_x0020_1">
  <metadata id="CorelCorpID_0Corel-Layer"/>
  <path fill="none" stroke="#5865F2" stroke-width="881.94" stroke-linejoin="round" stroke-miterlimit="22.9256" d="M16218.45 1635.42c-1213.56,-555.02 -2502.34,-959.54 -3847.57,-1185.32 -169.42,291.63 -357.54,686.73 -489.22,997.19 -1430.86,-206.98 -2851.41,-206.98 -4262.51,0 -131.71,-310.46 -329.27,-705.56 -489.2,-997.19 -1354.64,225.78 -2643.46,630.3 -3848.54,1185.32 -2436.51,3593.63 -3095.04,7102.57 -2765.78,10564.46 1618.07,1175.9 3179.71,1890.89 4714.07,2361.32 376.29,-508 714.96,-1053.66 1006.59,-1627.54 -555.04,-206.9 -1081.85,-460.9 -1589.85,-762 131.7,-94.01 263.41,-197.47 385.71,-301.01 3066.79,1401.77 6388.52,1401.77 9417.74,0 131.67,103.54 254,207 385.67,301.01 -508,301.1 -1034.78,555.1 -1589.88,762 291.66,573.88 630.33,1119.54 1006.65,1627.54 1533.35,-470.43 3104.45,-1185.42 4713.99,-2361.32 404.55,-4007.46 -640.64,-7488.21 -2747.87,-10564.46zm-9558.83 8429.01c-921.94,0 -1674.53,-837.23 -1674.53,-1862.67 0,-1025.33 733.78,-1862.64 1674.53,-1862.64 931.31,0 1693.28,837.31 1674.46,1862.64 0,1025.44 -743.15,1862.67 -1674.46,1862.67zm6181.6 0c-921.98,0 -1675.52,-837.23 -1675.52,-1862.67 0,-1025.33 734.75,-1862.64 1675.52,-1862.64 931.33,0 1693.33,837.31 1674.46,1862.64 0,1025.44 -733.69,1862.67 -1674.46,1862.67z"/>
 </g>
</svg>
